<?xml version="1.0" standalone="no"?><!DOCTYPE svg PUBLIC "-//W3C//DTD SVG 1.1//EN" "http://www.w3.org/Graphics/SVG/1.1/DTD/svg11.dtd"><svg t="1782013866677" class="icon" viewBox="0 0 1024 1024" version="1.1" xmlns="http://www.w3.org/2000/svg" p-id="1710" width="200" height="200" xmlns:xlink="http://www.w3.org/1999/xlink"><path d="M912.001826 511.993556c0 287.074775-112.914143 400.00827-399.988919 400.00827S111.985286 799.068331 111.985286 511.993556c0-287.074775 112.933494-399.988918 400.027621-399.988918 287.055424 0 399.969567 112.914143 399.969567 400.008269z" fill="#ECECEC" fill-opacity=".992" p-id="1711"></path><path d="M253.036047 611.090956m0 0l114.17197 0q0 0 0 0l0 87.951119q0 0 0 0l-114.17197 0q0 0 0 0l0-87.951119q0 0 0 0Z" fill="#FFFFFF" p-id="1712"></path><path d="M385.282021 504.833619m0 0l114.17197 0q0 0 0 0l0 194.208456q0 0 0 0l-114.17197 0q0 0 0 0l0-194.208456q0 0 0 0Z" fill="#FFFFFF" p-id="1713"></path><path d="M517.527994 287.81012m0 0l114.17197 0q0 0 0 0l0 411.231955q0 0 0 0l-114.17197 0q0 0 0 0l0-411.231955q0 0 0 0Z" fill="#FFFFFF" p-id="1714"></path><path d="M649.793318 406.490915m0 0l114.17197 0q0 0 0 0l0 292.531809q0 0 0 0l-114.17197 0q0 0 0 0l0-292.531809q0 0 0 0Z" fill="#FFFFFF" p-id="1715"></path><path d="M253.036047 716.999971m9.598186 0l498.737997 0q9.598186 0 9.598186 9.598186l0-0.019351q0 9.598186-9.598186 9.598186l-498.737997 0q-9.598186 0-9.598186-9.598186l0 0.019351q0-9.598186 9.598186-9.598186Z" fill="#FFFFFF" p-id="1716"></path><path d="M373.110128 754.250995l-49.558376 15.210029s-29.452498 17.416063 11.146281 23.202066c40.598778 5.805354 137.722358-0.735345 137.722357-0.735345s-61.614161-34.793424-99.310262-37.67675zM645.594112 754.250995l49.577727 15.210029s29.433147 17.416063-11.165632 23.202066c-40.579427 5.805354-137.722358-0.735345-137.722358-0.735345s61.614161-34.793424 99.310263-37.67675z" fill="#EDA300" p-id="1717"></path><path d="M510.077789 228.924475c-106.876575 0-193.511813 96.059264-193.511813 214.527197 134.335901 67.65173 263.330876 67.65173 387.023627 0 0-118.467932-86.65459-214.507845-193.511814-214.507845z" p-id="1718"></path><path d="M493.184208 335.027003a47.216882 37.425185 90 0 1-37.405834 47.216882 47.216882 37.425185 90 0 1-37.425184-47.216882 47.216882 37.425185 90 0 1 37.425184-47.216883 47.216882 37.425185 90 0 1 37.405834 47.216883zM597.23551 335.027003a47.216882 37.425185 90 0 1-37.405834 47.216882 47.216882 37.425185 90 0 1-37.425184-47.216882 47.216882 37.425185 90 0 1 37.425184-47.216883 47.216882 37.425185 90 0 1 37.405834 47.216883z" fill="#FFFFFF" p-id="1719"></path><path d="M485.250223 335.027003a26.53047 16.409802 90 0 1-16.409801 26.530469 26.53047 16.409802 90 0 1-16.390451-26.530469 26.53047 16.409802 90 0 1 16.390451-26.53047 26.53047 16.409802 90 0 1 16.409801 26.53047zM559.829676 335.027003a26.53047 16.409802 90 0 1-16.409801 26.530469 26.53047 16.409802 90 0 1-16.390451-26.530469 26.53047 16.409802 90 0 1 16.390451-26.53047 26.53047 16.409802 90 0 1 16.409801 26.53047z" fill="#1A1A1A" p-id="1720"></path><path d="M392.828981 417.888761s2.206035-17.803087 114.210673-18.112706c121.060991-0.32897 118.835605 19.564044 118.835604 19.564045s-61.440001 20.64771-118.816253 20.64771c-55.344379 0-114.230023-22.099049-114.230024-22.099049z" fill="#F09F02" p-id="1721"></path><path d="M307.374165 646.890641s32.122961 147.649514 205.799813 146.681955c168.529438-0.890154 195.737199-146.681955 195.737199-146.681955 19.041562 36.264114 52.538457 91.202118 47.081425-9.733644-6.501997-37.01881-28.214022-137.722358-28.214023-137.722358l-73.940864 17.512819s-161.175989 22.253859-267.085005 4.644284l-96.852662-16.100183c-24.40184 51.822464-55.499188 278.153881 17.474117 141.399082z" p-id="1722"></path><path d="M372.181271 506.32366h281.25007s52.015975 262.402019-131.20101 261.686025c-183.216985-0.735345-166.807183-177.605142-166.807183-193.550516 0-15.945373 16.758123-68.116158 16.758123-68.116158z" fill="#FFFFFF" p-id="1723"></path><path d="M313.643947 439.98781l-26.143446 65.600505 97.375145 16.409802 1.548094 86.615888 77.907856-1.548095 1.548095-71.231699s145.037104-7.179288 191.189672-19.486639c46.113865-12.288 70.709217-16.912932 70.709216-16.912933l-26.124095-59.446829s-143.527712 25.620964-183.507252 23.569739c-39.979541-2.051225-154.035404-2.554356-204.503285-23.569739z" fill="#E20C01" p-id="1724"></path></svg>